<?xml version="1.0" standalone="no"?>
<!DOCTYPE svg PUBLIC "-//W3C//DTD SVG 20010904//EN"
 "http://www.w3.org/TR/2001/REC-SVG-20010904/DTD/svg10.dtd">
<svg version="1.0" xmlns="http://www.w3.org/2000/svg"
 width="275.000000pt" height="183.000000pt" viewBox="0 0 275.000000 183.000000"
 preserveAspectRatio="xMidYMid meet">

<g transform="translate(0.000000,183.000000) scale(0.100000,-0.100000)"
fill="#000000" stroke="none">
<path d="M867 1480 c-154 -32 -259 -95 -319 -189 -31 -50 -36 -104 -13 -135 8
-11 16 -38 16 -60 l2 -41 6 33 6 34 23 -32 c62 -83 196 -86 851 -21 152 16
277 28 278 27 3 -2 -25 -72 -65 -162 -50 -113 -65 -187 -61 -301 3 -75 9 -99
35 -151 17 -34 29 -62 26 -62 -10 0 -278 113 -287 121 -5 5 27 -4 70 -20 44
-16 91 -32 105 -36 24 -7 24 -7 9 11 -9 11 -21 33 -26 49 -5 17 -20 35 -32 41
-12 6 -32 21 -45 33 -12 11 -34 21 -48 21 -27 0 -50 17 -68 51 -8 14 -22 19
-54 19 -27 0 -48 6 -56 15 -7 8 -20 15 -29 15 -18 1 -61 34 -61 48 0 5 -25 12
-55 15 -31 3 -75 16 -98 30 -23 13 -50 22 -59 20 -9 -3 -21 5 -28 16 -8 16
-17 20 -35 15 -16 -4 -35 0 -50 10 -13 9 -33 16 -44 16 -11 0 -22 4 -25 9 -3
5 -26 14 -51 20 -34 8 -48 19 -60 41 -9 17 -20 30 -26 30 -14 0 -2 -37 26 -80
20 -32 48 -47 221 -125 110 -49 208 -96 219 -106 11 -10 53 -31 94 -48 41 -17
82 -37 90 -46 17 -17 -55 12 -152 62 -29 14 -130 61 -226 104 -96 43 -190 90
-211 104 -40 28 -74 82 -90 141 l-10 39 5 -38 c6 -53 35 -105 76 -139 19 -15
136 -74 259 -132 124 -57 302 -139 395 -183 94 -44 220 -99 280 -122 61 -24
118 -50 128 -59 48 -42 288 6 399 81 81 54 179 195 183 261 1 23 7 53 13 68 6
15 9 35 5 43 -3 10 3 25 17 37 13 12 18 24 13 29 -16 16 -51 18 -64 3 -10 -12
-7 -13 20 -8 19 4 31 2 31 -4 0 -13 -36 -26 -49 -18 -5 3 -12 -1 -15 -9 -10
-27 -55 -38 -82 -20 -20 13 -24 13 -24 1 0 -21 -27 -38 -49 -31 -10 3 -24 19
-30 35 -5 17 -15 30 -21 30 -6 0 -8 -4 -5 -10 4 -6 -1 -7 -11 -3 -11 4 -13 8
-6 11 7 2 10 8 6 13 -7 12 37 11 56 -1 10 -6 20 -5 30 4 8 8 32 16 52 20 29 5
39 13 44 31 3 13 3 29 -1 34 -3 6 -3 16 0 22 4 6 23 -7 47 -33 21 -23 36 -34
32 -23 -5 11 -21 30 -36 43 -15 13 -28 29 -28 36 0 40 -124 95 -173 77 -16 -6
-6 -9 41 -13 42 -3 71 -11 90 -25 35 -26 41 -53 11 -53 -21 0 -21 -1 -6 -18
33 -37 10 -72 -46 -72 -14 0 -28 -7 -31 -16 -6 -15 -10 -14 -33 7 -14 13 -23
18 -19 12 5 -9 0 -13 -14 -13 -13 0 -28 -13 -41 -34 -24 -41 -45 -48 -89 -30
-18 8 -34 13 -34 12 -1 -2 -9 -20 -19 -41 -9 -21 -24 -40 -32 -44 -10 -3 32
-29 115 -69 71 -35 134 -64 140 -64 5 0 10 -7 10 -15 0 -8 -6 -15 -14 -15 -52
0 -218 90 -279 152 -36 36 -55 49 -43 29 19 -30 -50 -65 -79 -41 -9 8 -28 10
-49 6 -39 -7 -39 -7 -9 87 19 60 44 61 55 1 5 -25 19 -51 36 -65 20 -18 22
-18 10 -3 -10 11 -21 36 -24 55 -6 33 -6 33 10 14 15 -19 16 -19 6 8 -13 37
-13 37 9 37 10 0 36 -12 57 -26 l39 -26 -29 30 c-29 31 -104 56 -133 45 -9 -4
-11 0 -7 11 7 17 34 22 34 6 0 -5 10 -10 23 -10 20 1 19 2 -8 18 l-30 17 45 3
c34 3 47 -1 58 -15 12 -16 10 -19 -15 -24 -25 -6 -24 -7 10 -8 22 0 53 -11 70
-23 22 -15 28 -17 18 -5 -8 10 -9 17 -3 17 6 0 16 -8 21 -18 6 -9 11 -13 11
-8 0 6 -9 20 -21 32 l-21 22 21 11 c12 7 21 21 21 31 0 28 23 25 100 -10 64
-30 65 -30 35 -5 l-30 26 40 -6 c38 -5 37 -4 -10 10 -85 27 -81 25 -65 35 38
24 164 -1 206 -41 13 -12 24 -18 24 -12 0 21 -62 63 -103 70 l-42 6 35 13 c35
13 35 13 -15 7 -75 -9 -77 -9 -82 4 -2 7 8 13 24 15 25 3 24 5 -17 17 -25 7
-52 16 -61 21 -19 10 -327 -4 -519 -25 -324 -33 -703 -29 -795 9 -66 28 -105
110 -75 156 7 10 8 0 4 -32 -6 -42 -4 -49 21 -72 27 -25 111 -57 144 -55 9 0
-4 6 -29 13 -87 24 -130 56 -130 95 1 55 76 168 97 147 5 -4 -7 -20 -24 -35
-31 -26 -43 -64 -24 -75 4 -3 6 -17 3 -31 -6 -34 14 -55 54 -55 18 0 36 -4 39
-10 3 -5 24 -10 46 -10 22 0 50 -5 62 -12 34 -18 62 -20 222 -15 61 1 119 8
130 14 12 7 46 9 91 6 54 -4 82 -1 117 12 36 14 53 15 74 7 41 -15 185 -25
240 -15 l48 8 -45 5 c-25 3 -49 2 -54 -2 -6 -4 -21 -7 -35 -7 -25 1 -24 2 4 9
18 5 0 6 -43 2 -46 -3 -87 0 -111 8 -34 11 -45 10 -85 -5 -36 -14 -63 -17
-120 -12 -47 4 -76 3 -83 -4 -15 -15 -168 -23 -190 -10 -12 6 -26 5 -43 -4
-17 -9 -31 -10 -41 -4 -8 5 -26 9 -41 9 -15 0 -30 5 -33 10 -3 6 -25 10 -49
10 -23 0 -46 4 -52 9 -5 5 -24 11 -43 13 -42 4 -61 29 -43 58 10 17 10 20 -3
20 -38 0 6 66 72 106 10 7 18 23 18 37 -1 23 7 29 55 47 30 11 90 27 134 35
l79 15 296 -95 c452 -144 680 -223 740 -255 30 -17 56 -28 59 -26 12 13 -161
82 -393 159 -367 122 -698 227 -710 226 -5 0 -50 -9 -98 -19z m-187 -86 c-23
-14 -23 -14 -2 -9 25 7 31 -10 6 -19 -25 -10 -32 -7 -30 10 3 16 24 34 41 33
6 0 -1 -6 -15 -15z m-117 -109 c-3 -9 -8 -14 -10 -11 -3 3 -2 9 2 15 9 16 15
13 8 -4z m1375 -195 c37 -34 41 -56 12 -64 -11 -3 -29 -9 -40 -12 -16 -4 -20
-1 -20 20 0 23 -4 25 -52 29 l-53 3 60 3 c56 3 57 4 25 11 -19 5 -57 4 -84 -1
-64 -12 -73 -12 -60 1 6 6 35 13 65 17 30 3 61 9 69 14 26 14 44 9 78 -21z
m42 0 c0 -5 -6 -10 -14 -10 -8 0 -18 5 -21 10 -3 6 3 10 14 10 12 0 21 -4 21
-10z m-112 -48 c8 -6 12 -24 10 -48 -2 -31 -9 -42 -36 -57 l-32 -19 -19 23
c-23 28 -21 32 31 70 23 16 36 29 30 29 -6 0 -31 -16 -56 -35 -32 -25 -57 -35
-81 -35 -41 0 -44 11 -12 43 12 12 21 24 20 27 -3 10 131 11 145 2z m-18 -132
c0 -5 -2 -10 -4 -10 -3 0 -8 5 -11 10 -3 6 -1 10 4 10 6 0 11 -4 11 -10z m211
-91 c35 -11 78 -31 95 -44 17 -13 35 -21 39 -17 5 4 5 2 1 -5 -4 -7 -1 -21 6
-32 24 -39 -3 -34 -37 6 -23 27 -52 47 -83 58 -94 34 -102 37 -96 46 7 11 0
12 75 -12z m194 -7 c8 -4 11 -13 6 -20 -6 -10 -18 -8 -54 7 -26 11 -47 23 -47
26 0 7 78 -3 95 -13z m-115 -126 c0 -18 -77 4 -155 44 -95 48 -119 65 -111 78
7 11 266 -108 266 -122z m-410 50 c36 -1 45 -5 48 -20 2 -11 -2 -24 -10 -30
-9 -6 -15 -22 -14 -35 1 -34 -26 -48 -66 -33 -17 6 -27 7 -22 2 29 -29 200
-58 234 -40 34 18 49 -4 16 -25 -41 -27 -97 -30 -149 -7 -65 29 -117 70 -110
88 8 22 -15 17 -27 -6 -19 -36 -30 -21 -30 44 0 59 2 65 23 69 12 3 31 2 42
-1 11 -2 40 -5 65 -6z m510 -40 c0 -12 -5 -27 -12 -34 -14 -14 -87 -16 -108
-2 -12 8 -11 10 8 10 20 0 27 10 23 33 -2 14 15 7 32 -13 21 -25 37 -18 37 16
0 14 4 22 10 19 6 -3 10 -16 10 -29z m-400 -33 c79 -44 64 -78 -20 -42 -47 20
-63 43 -43 62 9 10 7 10 63 -20z m190 -47 c70 -25 85 -49 35 -54 -36 -3 -108
36 -113 61 -4 22 0 21 78 -7z m-371 -58 c45 -52 54 -66 46 -78 -10 -16 -35 1
-71 48 -58 76 -37 103 25 30z m211 32 c12 -8 9 -10 -12 -10 -15 0 -30 5 -33
10 -8 13 25 13 45 0z m331 -18 c-21 -40 -147 -142 -175 -142 -3 0 5 16 17 35
17 27 29 34 54 35 23 0 35 6 44 23 9 18 57 67 67 67 1 0 -2 -8 -7 -18z m-456
-32 c36 -22 48 -42 38 -66 -8 -22 -45 -13 -59 13 -6 13 -18 31 -27 41 -10 10
-17 22 -17 25 0 14 33 7 65 -13z m225 4 c0 -23 -19 -54 -34 -54 -7 0 -21 9
-30 19 -17 19 -17 20 11 35 36 20 53 20 53 0z m-40 -135 l25 -1 -25 -8 c-14
-4 -37 -8 -52 -9 -21 -1 -26 3 -21 15 4 10 13 14 27 10 11 -3 32 -6 46 -7z"/>
<path d="M950 1339 c0 -5 5 -7 10 -4 6 3 10 8 10 11 0 2 -4 4 -10 4 -5 0 -10
-5 -10 -11z"/>
<path d="M760 1330 c0 -5 5 -10 10 -10 6 0 10 5 10 10 0 6 -4 10 -10 10 -5 0
-10 -4 -10 -10z"/>
<path d="M1123 1294 c-7 -18 17 -38 31 -24 11 11 1 40 -14 40 -6 0 -13 -7 -17
-16z"/>
<path d="M990 1235 c0 -9 5 -15 11 -13 6 2 11 8 11 13 0 5 -5 11 -11 13 -6 2
-11 -4 -11 -13z"/>
<path d="M810 1210 c0 -5 5 -10 11 -10 5 0 7 5 4 10 -3 6 -8 10 -11 10 -2 0
-4 -4 -4 -10z"/>
<path d="M1370 1120 l-65 -7 55 0 c30 0 87 3 125 7 l70 7 -60 0 c-33 0 -89 -3
-125 -7z"/>
<path d="M1197 1103 c18 -2 50 -2 70 0 21 2 7 4 -32 4 -38 0 -55 -2 -38 -4z"/>
<path d="M748 1093 c12 -2 32 -2 45 0 12 2 2 4 -23 4 -25 0 -35 -2 -22 -4z"/>
<path d="M1038 1093 c23 -2 61 -2 85 0 23 2 4 4 -43 4 -47 0 -66 -2 -42 -4z"/>
<path d="M853 1083 c20 -2 54 -2 75 0 20 2 3 4 -38 4 -41 0 -58 -2 -37 -4z"/>
<path d="M1480 980 c0 -5 5 -10 10 -10 6 0 10 5 10 10 0 6 -4 10 -10 10 -5 0
-10 -4 -10 -10z"/>
<path d="M1030 954 c0 -17 22 -14 28 4 2 7 -3 12 -12 12 -9 0 -16 -7 -16 -16z"/>
<path d="M1465 920 c-3 -5 -1 -10 4 -10 6 0 11 5 11 10 0 6 -2 10 -4 10 -3 0
-8 -4 -11 -10z"/>
<path d="M1237 884 c-14 -15 -6 -34 14 -34 14 0 19 5 17 17 -3 18 -20 27 -31
17z"/>
<path d="M1385 841 c-3 -5 -1 -12 5 -16 12 -7 30 2 30 16 0 12 -27 12 -35 0z"/>
</g>
</svg>
